<?xml version="1.0" encoding="UTF-8" standalone="no"?>
<!DOCTYPE svg PUBLIC "-//W3C//DTD SVG 1.1//EN" "http://www.w3.org/Graphics/SVG/1.1/DTD/svg11.dtd">
<svg width="100%" height="100%" viewBox="0 0 328 105" version="1.1" xmlns="http://www.w3.org/2000/svg" xmlns:xlink="http://www.w3.org/1999/xlink" xml:space="preserve" xmlns:serif="http://www.serif.com/" style="fill-rule:evenodd;clip-rule:evenodd;stroke-linejoin:round;stroke-miterlimit:2;">
    <g transform="matrix(0.622671,0,0,0.622671,9.00004,0.999925)">
        <g id="Layer-2" serif:id="Layer 2">
            <g transform="matrix(1,0,0,1,86.9849,58.1147)">
                <path d="M0,50.464C9.351,58.697 18.451,66.717 27.558,74.733C31.389,78.103 35.276,81.408 39.056,84.832C44.6,89.86 45.229,97.649 40.604,102.886C36.046,108.047 28.458,108.591 22.91,103.749C2.074,85.57 -18.687,67.306 -39.4,48.988C-43.945,44.968 -45.048,39.835 -43.002,34.72C-41.022,29.772 -36.583,27.128 -30.449,26.93C-22.733,26.683 -14.976,27.737 -7.302,26.202C6.161,23.506 16.313,11.477 16.542,-2.057C16.792,-16.994 7.554,-28.981 -6.521,-32.479C-10.45,-33.456 -14.327,-33.404 -18.255,-33.415C-32.09,-33.454 -45.926,-33.404 -59.762,-33.443C-67.884,-33.466 -73.452,-38.536 -73.448,-45.781C-73.443,-53.107 -67.959,-58.09 -59.834,-58.098C-43.691,-58.113 -27.55,-58.127 -11.407,-58.098C20.748,-58.038 47.152,-25.401 40.703,6.099C36.047,28.835 22.262,43.125 0,50.464" style="fill:rgb(74,164,172);"/>
            </g>
            <g transform="matrix(1,0,0,1,0.084,87.2355)">
                <path d="M0,32.766C0.63,23.155 -1.035,11.273 0.843,-0.525C4.661,-24.523 28.07,-44.774 52.357,-45.025C59.111,-45.094 65.869,-45.101 72.623,-45.022C80.049,-44.936 85.182,-39.854 85.2,-32.722C85.219,-25.52 80.168,-20.617 72.718,-20.3C64.689,-19.958 56.625,-21.193 48.617,-19.429C34.728,-16.368 24.762,-4.415 24.691,9.852C24.601,27.976 24.705,46.102 24.634,64.227C24.612,70.068 21.347,74.486 16.126,76.251C11.349,77.867 5.77,76.114 2.423,71.949C0.59,69.664 -0.057,67.073 -0.031,64.146C0.054,54.424 0,44.704 0,32.766" style="fill:rgb(241,194,47);"/>
            </g>
        </g>
    </g>
    <g transform="matrix(1,0,0,1,0,1)">
        <g transform="matrix(1.04271,0,0,1.04271,-163.984,-0.0686986)">
            <text x="262.085px" y="84.112px" style="font-family:'Nunito-SemiBold', 'Nunito';font-weight:600;font-size:30px;fill:white;">W<tspan x="301.565px 325.445px 348.185px 370.925px 399.545px 423.125px 448.265px " y="84.112px 84.112px 84.112px 84.112px 84.112px 84.112px 84.112px ">ELLNESS</tspan></text>
        </g>
        <g transform="matrix(0.570314,0,0,0.626086,34.1089,38.2996)">
            <text x="128.041px" y="33.846px" style="font-family:'Nunito-ExtraBold', 'Nunito';font-weight:800;font-size:91.837px;fill:white;">r<tspan x="163.859px 212.809px 271.082px 319.132px 388.101px 450.463px " y="33.846px 33.846px 33.846px 33.846px 33.846px 33.846px ">eSTART</tspan></text>
        </g>
    </g>
</svg>
