<?xml version="1.0" encoding="UTF-8" standalone="no"?>
<!DOCTYPE svg PUBLIC "-//W3C//DTD SVG 1.1//EN" "http://www.w3.org/Graphics/SVG/1.1/DTD/svg11.dtd">
<svg width="100%" height="100%" viewBox="0 0 81 105" version="1.1" xmlns="http://www.w3.org/2000/svg" xmlns:xlink="http://www.w3.org/1999/xlink" xml:space="preserve" xmlns:serif="http://www.serif.com/" style="fill-rule:evenodd;clip-rule:evenodd;stroke-linejoin:round;stroke-miterlimit:2;">
    <g id="Logo" transform="matrix(0.303797,0,0,0.303797,-0.153853,1.00041)">
        <g id="Turquise" transform="matrix(1,0,0,1,176.227,117.74)">
            <path d="M0,102.237C18.944,118.92 37.382,135.167 55.832,151.404C63.593,158.232 71.468,164.932 79.126,171.869C90.358,182.051 91.634,197.832 82.262,208.442C73.027,218.898 57.656,220 46.415,210.191C4.203,173.36 -37.859,136.357 -79.823,99.247C-89.031,91.104 -91.266,80.703 -87.12,70.341C-83.11,60.316 -74.114,54.958 -61.688,54.559C-46.058,54.058 -30.342,56.195 -14.793,53.084C12.481,47.621 33.051,23.25 33.514,-4.169C34.019,-34.429 15.305,-58.715 -13.211,-65.801C-21.172,-67.781 -29.026,-67.676 -36.983,-67.699C-65.013,-67.777 -93.044,-67.676 -121.075,-67.754C-137.53,-67.801 -148.812,-78.073 -148.802,-92.751C-148.793,-107.594 -137.684,-117.689 -121.222,-117.705C-88.517,-117.736 -55.815,-117.763 -23.11,-117.705C42.035,-117.583 95.528,-51.463 82.462,12.356C73.031,58.418 45.104,87.367 0,102.237" style="fill:rgb(75,165,173);"/>
        </g>
        <g id="Yellow" transform="matrix(1,0,0,1,0.1699,180.163)">
            <path d="M0,66.382C1.275,46.911 -2.098,22.841 1.707,-1.065C9.441,-49.681 56.869,-90.711 106.072,-91.219C119.757,-91.36 133.447,-91.372 147.131,-91.213C162.176,-91.039 172.575,-80.742 172.611,-66.293C172.65,-51.701 162.417,-41.769 147.324,-41.127C131.057,-40.434 114.721,-42.937 98.496,-39.361C70.356,-33.16 50.167,-8.946 50.023,19.959C49.84,56.678 50.051,93.4 49.907,130.121C49.863,141.956 43.248,150.904 32.67,154.481C22.992,157.754 11.689,154.203 4.909,145.764C1.194,141.139 -0.115,135.886 -0.063,129.957C0.108,110.264 0,90.568 0,66.382" style="fill:rgb(242,195,48);"/>
        </g>
    </g>
</svg>
