<?xml version="1.0" encoding="UTF-8" standalone="no"?>
<svg
   viewBox="0 0 50 50"
   width="50px"
   height="50px"
   version="1.1"
   id="svg19"
   sodipodi:docname="search.svg"
   inkscape:version="1.2.2 (732a01da63, 2022-12-09)"
   xmlns:inkscape="http://www.inkscape.org/namespaces/inkscape"
   xmlns:sodipodi="http://sodipodi.sourceforge.net/DTD/sodipodi-0.dtd"
   xmlns="http://www.w3.org/2000/svg"
   xmlns:svg="http://www.w3.org/2000/svg">
  <defs
     id="defs23" />
  <sodipodi:namedview
     id="namedview21"
     pagecolor="#ffffff"
     bordercolor="#000000"
     borderopacity="0.25"
     inkscape:showpageshadow="2"
     inkscape:pageopacity="0.0"
     inkscape:pagecheckerboard="0"
     inkscape:deskcolor="#d1d1d1"
     showgrid="false"
     inkscape:zoom="17.06"
     inkscape:cx="24.970692"
     inkscape:cy="24.970692"
     inkscape:window-width="1920"
     inkscape:window-height="1111"
     inkscape:window-x="-9"
     inkscape:window-y="-9"
     inkscape:window-maximized="1"
     inkscape:current-layer="svg19" />
  <path
     style="fill:#b3b3b3;stroke-width:0.0586166"
     d="m 37.524995,40.267015 c -3.588979,-3.577104 -6.551623,-6.503826 -6.583655,-6.503826 -0.03203,0 -0.439848,0.239074 -0.906257,0.531276 -2.942543,1.84348 -6.07646,2.708911 -9.46064,2.612555 C 19.256977,36.869508 18.8009,36.820915 17.702227,36.600996 14.386102,35.937213 11.40457,34.321608 8.9855055,31.877658 6.2197157,29.083417 4.6012586,25.685521 4.1600479,21.746776 4.0797202,21.02968 4.079613,18.9483 4.1598668,18.229777 4.3954702,16.120387 4.8873745,14.455359 5.8385689,12.5476 6.7764108,10.66662 7.5956818,9.5197022 9.0257654,8.0857616 11.729829,5.3744056 14.953635,3.7612509 18.744147,3.2227982 c 0.600422,-0.085292 1.131635,-0.1143876 2.094071,-0.1146977 1.527253,-4.921e-4 2.328837,0.062604 3.349652,0.2636637 6.782668,1.3359171 12.053173,6.5770857 13.408614,13.3339798 0.264316,1.317619 0.299339,1.713171 0.295831,3.341149 -0.0028,1.305912 -0.02423,1.68773 -0.134442,2.397021 -0.458243,2.949091 -1.630208,5.656902 -3.489959,8.063505 l -0.451004,0.58362 6.493953,6.49415 6.493953,6.49415 -1.347417,1.348373 c -0.741079,0.741605 -1.36082,1.347193 -1.377203,1.345751 -0.01638,-0.0014 -2.966222,-2.929343 -6.555201,-6.506448 z M 22.186401,34.992056 c 2.657204,-0.224734 4.978159,-1.023435 7.147798,-2.459747 2.164245,-1.43274 3.953224,-3.453199 5.124736,-5.787834 1.007802,-2.008388 1.504573,-4.014296 1.571583,-6.345882 0.08917,-3.10254 -0.745971,-6.043953 -2.470483,-8.701206 C 32.453991,9.9931155 30.717978,8.2987564 28.961958,7.2096387 27.075333,6.0395168 24.696409,5.2263209 22.62316,5.0428254 c -0.970781,-0.08592 -2.609338,-0.073812 -3.455876,0.025538 -2.3442,0.2751153 -4.446792,1.046038 -6.453788,2.3663034 -1.03443,0.6804815 -1.519338,1.0798622 -2.370697,1.9525594 -1.4484572,1.4847618 -2.234432,2.6276848 -3.1015672,4.5101378 -0.3694483,0.80203 -0.613463,1.538547 -0.8818913,2.661839 -0.3242141,1.356738 -0.3485466,1.603846 -0.346316,3.516999 0.00194,1.662202 0.010608,1.802095 0.1583206,2.554609 0.9125368,4.648867 3.5686626,8.350929 7.5742589,10.556872 1.918191,1.056377 3.710385,1.585669 6.184056,1.826349 0.46151,0.0449 1.596668,0.03385 2.256741,-0.02198 z"
     id="path609" />
</svg>
